<svg xmlns="http://www.w3.org/2000/svg" xmlns:xlink="http://www.w3.org/1999/xlink" width="500" zoomAndPan="magnify" viewBox="0 0 375 374.999991" height="500" preserveAspectRatio="xMidYMid meet" version="1.0"><defs><filter x="0%" y="0%" width="100%" height="100%" id="7af3bfeb8d"><feColorMatrix values="0 0 0 0 1 0 0 0 0 1 0 0 0 0 1 0 0 0 1 0" color-interpolation-filters="sRGB"/></filter><g/><mask id="6f7fe52218"><g filter="url(#7af3bfeb8d)"><rect x="-37.5" width="450" fill="#000000" y="-37.499999" height="449.999989" fill-opacity="0.66"/></g></mask><clipPath id="25fa855942"><path d="M 0.121094 12 L 277 12 L 277 201 L 0.121094 201 Z M 0.121094 12 " clip-rule="nonzero"/></clipPath><clipPath id="cca5277768"><rect x="0" width="278" y="0" height="344"/></clipPath></defs><g fill="#ffffff" fill-opacity="1"><g transform="translate(19.582034, 207.749986)"><g><path d="M 44.285156 0 L 51.421875 0 L 26.007812 -60.007812 L 25.414062 -60.007812 C 18.953125 -49.042969 11.304688 -33.574219 6.800781 -21.417969 C 4.761719 -15.980469 3.570312 -11.21875 3.144531 -7.480469 C 2.71875 -3.65625 3.65625 -1.105469 5.949219 -0.0859375 C 6.542969 0.425781 6.800781 0.425781 7.308594 0.511719 C 11.132812 0.679688 12.578125 -2.464844 14.195312 -6.714844 C 16.914062 -12.917969 20.230469 -21.675781 34.679688 -23.035156 Z M 34.425781 -23.628906 C 19.71875 -22.183594 16.320312 -13.257812 13.515625 -6.886719 C 12.15625 -2.976562 10.792969 0 7.394531 -0.253906 C 6.96875 -0.511719 6.714844 -0.511719 6.203125 -0.679688 C 4.164062 -1.359375 3.570312 -3.996094 3.738281 -7.480469 C 4.164062 -11.132812 5.355469 -15.808594 7.394531 -21.25 C 10.964844 -31.109375 16.746094 -42.667969 21.929688 -52.699219 Z M 34.425781 -23.628906 "/></g></g></g><g fill="#ffffff" fill-opacity="1"><g transform="translate(73.979576, 207.749986)"><g><path d="M 27.027344 -33.148438 C 34.425781 -34.085938 40.714844 -38.332031 40.714844 -46.664062 C 40.714844 -56.351562 30.429688 -60.09375 17.933594 -60.09375 L 2.976562 -60.09375 L 2.976562 0 L 9.691406 0 L 9.691406 -47.683594 C 10.453125 -44.113281 11.476562 -41.394531 13.003906 -38.929688 C 15.554688 -34.933594 19.210938 -32.808594 23.375 -32.808594 C 42.582031 -32.808594 23.375 0 54.3125 0 L 54.3125 -0.679688 C 48.617188 -0.679688 45.472656 -7.140625 42.242188 -14.535156 C 38.84375 -22.523438 35.867188 -31.109375 27.027344 -33.148438 Z M 34 -46.664062 C 34 -37.738281 29.410156 -33.742188 23.96875 -33.402344 L 23.375 -33.402344 C 19.464844 -33.402344 15.980469 -35.867188 13.597656 -39.355469 C 11.21875 -43.09375 9.691406 -47.9375 9.691406 -54.144531 L 9.691406 -59.414062 L 17.933594 -59.414062 C 26.179688 -59.414062 34 -56.351562 34 -46.664062 Z M 34 -46.664062 "/></g></g></g><g fill="#ffffff" fill-opacity="1"><g transform="translate(131.26699, 207.749986)"><g><path d="M 23.203125 0 L 29.75 0 L 29.75 -59.414062 C 38.757812 -59.328125 44.199219 -58.816406 49.980469 -53.464844 L 49.980469 -60.09375 L 2.976562 -60.09375 L 2.976562 -53.464844 C 8.585938 -58.816406 14.109375 -59.328125 23.203125 -59.414062 Z M 23.203125 0 "/></g></g></g><g fill="#ffffff" fill-opacity="1"><g transform="translate(184.2196, 207.749986)"><g/></g></g><g fill="#ffffff" fill-opacity="1"><g transform="translate(207.933531, 207.749986)"><g><path d="M 9.433594 -35.273438 C 13.941406 -23.542969 36.890625 -39.097656 36.890625 -21.929688 L 36.890625 0 L 43.519531 0 L 43.519531 -60.007812 L 36.890625 -60.007812 L 36.890625 -26.519531 C 32.554688 -38.332031 9.433594 -22.523438 9.433594 -39.949219 L 9.433594 -60.007812 L 2.976562 -60.007812 L 2.976562 0 L 9.433594 0 Z M 9.433594 -35.273438 "/></g></g></g><g fill="#ffffff" fill-opacity="1"><g transform="translate(254.426433, 207.749986)"><g><path d="M 9.691406 -60.09375 L 2.976562 -60.09375 L 2.976562 -21.757812 C 2.976562 -4.929688 19.804688 4.164062 35.019531 -1.273438 C 43.945312 -4.589844 48.617188 -12.324219 48.617188 -21.757812 L 48.617188 -60.09375 L 41.988281 -60.09375 C 47.597656 -52.785156 47.855469 -34.507812 47.855469 -21.757812 C 47.855469 -11.984375 43.007812 -4.929688 34.847656 -1.953125 C 21.164062 3.144531 9.691406 -7.648438 9.691406 -21.757812 Z M 9.691406 -60.09375 "/></g></g></g><g fill="#ffffff" fill-opacity="1"><g transform="translate(306.019096, 207.749986)"><g><path d="M 28.132812 -33.0625 C 35.019531 -34.507812 40.628906 -38.757812 40.628906 -46.410156 C 40.628906 -56.183594 30.429688 -60.007812 17.679688 -60.007812 L 2.976562 -60.007812 L 2.976562 0 L 23.121094 0 C 36.207031 -0.0859375 46.410156 -2.976562 46.410156 -16.660156 C 46.410156 -28.730469 38.84375 -32.300781 28.132812 -33.0625 Z M 39.777344 -16.660156 C 39.777344 -1.359375 30.089844 -0.679688 22.4375 -0.679688 L 9.691406 -0.679688 L 9.691406 -47.34375 C 10.371094 -44.027344 11.390625 -41.140625 12.917969 -38.84375 C 15.382812 -34.933594 19.125 -32.640625 23.121094 -32.640625 C 30.515625 -32.640625 39.777344 -31.875 39.777344 -16.660156 Z M 34 -46.410156 C 34 -37.144531 28.8125 -33.320312 23.121094 -33.320312 C 19.292969 -33.320312 15.980469 -35.445312 13.597656 -39.269531 C 11.132812 -42.839844 9.691406 -47.9375 9.691406 -53.804688 L 9.691406 -59.414062 L 17.679688 -59.414062 C 25.839844 -59.414062 34 -56.097656 34 -46.410156 Z M 34 -46.410156 "/></g></g></g><g mask="url(#6f7fe52218)"><g transform="matrix(1, 0, 0, 1, 51, 0)"><g clip-path="url(#cca5277768)"><g clip-path="url(#25fa855942)"><g fill="#000000" fill-opacity="1"><g transform="translate(58.099341, 160.074365)"><g><path d="M 216.328125 -36.578125 C 211.234375 -37.171875 206.097656 -37.46875 200.921875 -37.46875 C 198.648438 -37.539062 196.34375 -37.601562 194 -37.65625 C 172.625 -38.539062 151.195312 -38.769531 129.71875 -38.34375 C 128.644531 -38.34375 127.765625 -38.34375 127.078125 -38.34375 C 125.898438 -38.425781 125.046875 -38.421875 124.515625 -38.328125 C 123.984375 -38.234375 123.554688 -37.9375 123.234375 -37.4375 C 122.910156 -36.945312 122.535156 -36.140625 122.109375 -35.015625 C 121.816406 -34.378906 121.472656 -33.582031 121.078125 -32.625 C 117.492188 -24.832031 114.207031 -16.90625 111.21875 -8.84375 C 109.269531 -3.644531 107.765625 1.691406 106.703125 7.171875 C 106.304688 8.867188 106.164062 10.523438 106.28125 12.140625 C 106.40625 13.753906 107.132812 15.203125 108.46875 16.484375 C 108.65625 16.617188 108.71875 16.785156 108.65625 16.984375 C 108.601562 17.191406 108.484375 17.378906 108.296875 17.546875 C 108.117188 17.722656 107.921875 17.835938 107.703125 17.890625 C 104.523438 18.367188 102.617188 17.234375 101.984375 14.484375 C 101.609375 12.941406 101.539062 11.351562 101.78125 9.71875 C 101.78125 9.59375 101.78125 9.503906 101.78125 9.453125 C 102.019531 6.648438 102.519531 3.863281 103.28125 1.09375 C 104.039062 -1.664062 104.890625 -4.429688 105.828125 -7.203125 C 108.835938 -15.523438 112.15625 -23.742188 115.78125 -31.859375 C 115.96875 -32.203125 116.117188 -32.550781 116.234375 -32.90625 C 116.421875 -33.300781 116.617188 -33.710938 116.828125 -34.140625 C 117.117188 -34.722656 117.382812 -35.304688 117.625 -35.890625 C 117.863281 -36.484375 117.957031 -37.101562 117.90625 -37.75 C 117.613281 -37.988281 117.320312 -38.132812 117.03125 -38.1875 C 116.738281 -38.238281 116.445312 -38.238281 116.15625 -38.1875 C 116.09375 -38.1875 116.023438 -38.1875 115.953125 -38.1875 C 113.441406 -38.1875 110.921875 -38.160156 108.390625 -38.109375 C 107.691406 -38.109375 106.957031 -38.109375 106.1875 -38.109375 C 105.25 -38.046875 104.457031 -37.75 103.8125 -37.21875 C 103.175781 -36.6875 102.566406 -36.035156 101.984375 -35.265625 C 101.203125 -34.273438 100.425781 -33.285156 99.65625 -32.296875 C 96.375 -28.109375 93.066406 -23.960938 89.734375 -19.859375 C 84.796875 -13.878906 79.640625 -8.113281 74.265625 -2.5625 C 68.890625 2.988281 63.1875 8.191406 57.15625 13.046875 C 49.570312 19.285156 41.523438 24.78125 33.015625 29.53125 C 19.992188 36.53125 6.347656 39.84375 -7.921875 39.46875 C -21.367188 39.164062 -33.5 35.535156 -44.3125 28.578125 C -47.351562 26.628906 -50.046875 24.28125 -52.390625 21.53125 C -53.960938 19.582031 -55.207031 17.476562 -56.125 15.21875 C -57.050781 12.96875 -57.515625 10.523438 -57.515625 7.890625 C -57.378906 4.710938 -56.648438 1.769531 -55.328125 -0.9375 C -54.015625 -3.644531 -52.179688 -6.109375 -49.828125 -8.328125 C -46.597656 -11.441406 -43.050781 -14.082031 -39.1875 -16.25 C -35.425781 -18.4375 -31.550781 -20.347656 -27.5625 -21.984375 C -23.570312 -23.628906 -19.546875 -25.09375 -15.484375 -26.375 C -8.921875 -28.476562 -2.289062 -30.25 4.40625 -31.6875 C 11.101562 -33.132812 17.828125 -34.363281 24.578125 -35.375 C 40.585938 -37.59375 56.632812 -39.0625 72.71875 -39.78125 C 80.9375 -40.289062 89.128906 -40.546875 97.296875 -40.546875 C 99.535156 -40.492188 101.269531 -41.441406 102.5 -43.390625 C 104.664062 -46.429688 106.84375 -49.484375 109.03125 -52.546875 C 112.414062 -57.242188 115.75 -62.019531 119.03125 -66.875 C 134.289062 -89.664062 148.910156 -112.828125 162.890625 -136.359375 C 164.066406 -138.359375 165.21875 -140.382812 166.34375 -142.4375 C 166.875 -143.476562 167.429688 -144.535156 168.015625 -145.609375 C 168.710938 -146.960938 169.820312 -147.722656 171.34375 -147.890625 C 172.164062 -147.890625 172.769531 -147.65625 173.15625 -147.1875 C 173.550781 -146.71875 173.597656 -146.097656 173.296875 -145.328125 C 173.003906 -144.679688 172.671875 -144.066406 172.296875 -143.484375 C 170.035156 -139.429688 168.023438 -135.320312 166.265625 -131.15625 C 165.597656 -129.6875 164.941406 -128.242188 164.296875 -126.828125 C 158.128906 -113.460938 151.941406 -100.082031 145.734375 -86.6875 C 140.984375 -76.363281 136.191406 -66.015625 131.359375 -55.640625 C 129.972656 -52.566406 128.597656 -49.507812 127.234375 -46.46875 C 126.941406 -45.820312 126.648438 -45.207031 126.359375 -44.625 C 126.304688 -44.488281 126.25 -44.34375 126.1875 -44.1875 C 126.007812 -43.757812 125.859375 -43.335938 125.734375 -42.921875 C 125.609375 -42.515625 125.640625 -42.109375 125.828125 -41.703125 C 126.234375 -41.410156 126.703125 -41.25 127.234375 -41.21875 C 127.765625 -41.195312 128.257812 -41.1875 128.71875 -41.1875 C 129.09375 -41.238281 129.425781 -41.265625 129.71875 -41.265625 C 131.9375 -41.210938 134.164062 -41.210938 136.40625 -41.265625 C 139.445312 -41.265625 142.5 -41.238281 145.5625 -41.1875 C 162.21875 -40.894531 178.882812 -40.535156 195.5625 -40.109375 C 201.03125 -39.992188 206.457031 -39.765625 211.84375 -39.421875 C 212.320312 -39.367188 212.828125 -39.34375 213.359375 -39.34375 C 213.660156 -39.34375 213.984375 -39.34375 214.328125 -39.34375 C 215.023438 -39.34375 215.695312 -39.28125 216.34375 -39.15625 C 217 -39.039062 217.617188 -38.8125 218.203125 -38.46875 C 218.316406 -38.382812 218.398438 -38.253906 218.453125 -38.078125 C 218.503906 -37.910156 218.503906 -37.769531 218.453125 -37.65625 C 218.453125 -37.46875 218.378906 -37.300781 218.234375 -37.15625 C 218.085938 -37.007812 217.957031 -36.910156 217.84375 -36.859375 C 217.363281 -36.671875 216.859375 -36.578125 216.328125 -36.578125 Z M 97.015625 -36.140625 C 97.203125 -36.515625 97.222656 -36.847656 97.078125 -37.140625 C 96.929688 -37.429688 96.6875 -37.578125 96.34375 -37.578125 C 95.800781 -37.628906 95.238281 -37.628906 94.65625 -37.578125 C 94.363281 -37.578125 94.070312 -37.578125 93.78125 -37.578125 C 73.632812 -37.335938 53.472656 -35.953125 33.296875 -33.421875 C 25.585938 -32.484375 17.914062 -31.253906 10.28125 -29.734375 C 2.65625 -28.210938 -4.90625 -26.304688 -12.40625 -24.015625 C -16.40625 -22.785156 -20.351562 -21.375 -24.25 -19.78125 C -28.144531 -18.195312 -31.945312 -16.3125 -35.65625 -14.125 C -39.53125 -11.96875 -43.054688 -9.328125 -46.234375 -6.203125 C -49.941406 -2.390625 -52.023438 1.671875 -52.484375 5.984375 C -52.953125 10.296875 -51.800781 14.453125 -49.03125 18.453125 C -46.976562 21.253906 -44.523438 23.65625 -41.671875 25.65625 C -31.265625 33.039062 -18.867188 36.800781 -4.484375 36.9375 C -0.796875 36.9375 3.429688 36.457031 8.203125 35.5 C 12.953125 34.507812 17.539062 33.0625 21.96875 31.15625 C 26.394531 29.25 30.691406 27.003906 34.859375 24.421875 C 45.128906 18.085938 54.640625 10.722656 63.390625 2.328125 C 69.453125 -3.359375 75.164062 -9.34375 80.53125 -15.625 C 85.894531 -21.914062 91.097656 -28.316406 96.140625 -34.828125 C 96.429688 -35.304688 96.722656 -35.742188 97.015625 -36.140625 Z M 121.515625 -44.421875 C 125.378906 -53.234375 129.367188 -62.015625 133.484375 -70.765625 C 133.671875 -71.242188 134.289062 -72.625 135.34375 -74.90625 C 136.394531 -77.1875 137.609375 -79.835938 138.984375 -82.859375 C 140.359375 -85.890625 141.617188 -88.753906 142.765625 -91.453125 C 143.910156 -94.148438 144.71875 -96.171875 145.1875 -97.515625 C 145.65625 -98.867188 145.515625 -98.992188 144.765625 -97.890625 C 144.578125 -97.648438 144.429688 -97.410156 144.328125 -97.171875 C 143.679688 -96.242188 143.066406 -95.3125 142.484375 -94.375 C 137.597656 -86.800781 132.6875 -79.238281 127.75 -71.6875 C 122.820312 -64.132812 117.710938 -56.6875 112.421875 -49.34375 C 111.921875 -48.65625 111.398438 -47.921875 110.859375 -47.140625 C 109.847656 -45.753906 108.847656 -44.359375 107.859375 -42.953125 C 107.460938 -42.359375 107.347656 -41.867188 107.515625 -41.484375 C 107.691406 -41.097656 108.101562 -40.90625 108.75 -40.90625 C 109.8125 -40.90625 110.863281 -40.929688 111.90625 -40.984375 C 113.5625 -41.117188 115.203125 -41.1875 116.828125 -41.1875 C 118.078125 -41.132812 119.050781 -41.398438 119.75 -41.984375 C 120.445312 -42.566406 121.035156 -43.378906 121.515625 -44.421875 Z M 121.515625 -44.421875 "/></g></g></g></g><g fill="#000000" fill-opacity="1"><g transform="translate(58.099341, 274.34578)"><g><path d="M 201.046875 1.515625 C 201.148438 1.566406 201.257812 1.664062 201.375 1.8125 C 201.5 1.96875 201.5625 2.140625 201.5625 2.328125 C 201.5625 2.617188 201.472656 2.847656 201.296875 3.015625 C 201.128906 3.191406 200.921875 3.28125 200.671875 3.28125 L 199.875 3.203125 C 199.769531 3.253906 199.691406 3.28125 199.640625 3.28125 C 184.828125 2.457031 170.226562 1.957031 155.84375 1.78125 C 141.46875 1.601562 126.96875 1.539062 112.34375 1.59375 C 109.945312 1.59375 107.570312 1.59375 105.21875 1.59375 C 103.75 1.59375 102.5625 1.875 101.65625 2.4375 C 100.75 3 99.976562 3.988281 99.34375 5.40625 C 95.582031 13.96875 91.738281 22.503906 87.8125 31.015625 C 85.675781 35.660156 83.554688 40.304688 81.453125 44.953125 C 79.929688 48.335938 78.4375 51.765625 76.96875 55.234375 C 76.195312 56.941406 75.460938 58.648438 74.765625 60.359375 C 74.710938 60.515625 74.617188 60.6875 74.484375 60.875 C 74.378906 61.351562 74.179688 61.796875 73.890625 62.203125 C 73.398438 62.597656 72.773438 62.828125 72.015625 62.890625 C 71.253906 62.960938 70.59375 62.816406 70.03125 62.453125 C 69.476562 62.097656 69.320312 61.476562 69.5625 60.59375 C 70.09375 59.125 70.679688 57.695312 71.328125 56.3125 C 76.953125 43.445312 82.617188 30.585938 88.328125 17.734375 C 89.660156 14.742188 91.007812 11.710938 92.375 8.640625 C 92.5625 8.191406 92.757812 7.703125 92.96875 7.171875 C 93.457031 6.097656 93.941406 5.039062 94.421875 4 C 94.867188 2.820312 94.570312 2.171875 93.53125 2.046875 C 86.0625 2.234375 78.632812 2.566406 71.25 3.046875 C 67.375 3.253906 63.460938 3.453125 59.515625 3.640625 C 57.296875 3.691406 55.75 4.742188 54.875 6.796875 C 51 15.148438 46.96875 23.4375 42.78125 31.65625 C 40.332031 36.507812 37.835938 41.378906 35.296875 46.265625 C 34.367188 48.023438 33.4375 49.785156 32.5 51.546875 C 31.96875 52.671875 31.378906 53.726562 30.734375 54.71875 C 30.097656 55.59375 29.234375 56.128906 28.140625 56.328125 C 27.046875 56.535156 26.085938 56.476562 25.265625 56.15625 C 24.453125 55.832031 24.078125 55.320312 24.140625 54.625 C 24.429688 53.269531 24.84375 51.976562 25.375 50.75 C 29.59375 39.945312 34.195312 29.328125 39.1875 18.890625 C 40.945312 15.179688 42.707031 11.472656 44.46875 7.765625 C 44.945312 6.585938 44.625 5.925781 43.5 5.78125 C 42.382812 5.632812 40.742188 5.679688 38.578125 5.921875 C 38.523438 5.921875 38.429688 5.921875 38.296875 5.921875 C 34.535156 6.265625 30.671875 6.789062 26.703125 7.5 C 22.742188 8.207031 20.15625 8.734375 18.9375 9.078125 C 17.707031 9.378906 16.453125 9.53125 15.171875 9.53125 C 15.085938 9.601562 14.992188 9.640625 14.890625 9.640625 C 14.785156 9.640625 14.664062 9.601562 14.53125 9.53125 L 13.84375 9.640625 C 13.601562 9.640625 13.363281 9.546875 13.125 9.359375 C 12.882812 9.171875 12.765625 8.929688 12.765625 8.640625 C 12.816406 8.484375 12.914062 8.285156 13.0625 8.046875 C 13.207031 7.804688 13.375 7.632812 13.5625 7.53125 C 18.257812 5.875 23.050781 4.722656 27.9375 4.078125 C 33.507812 3.253906 39.085938 2.550781 44.671875 1.96875 C 46.535156 1.90625 47.851562 1.050781 48.625 -0.59375 C 50.257812 -3.9375 51.957031 -7.273438 53.71875 -10.609375 C 55.820312 -14.554688 57.96875 -18.488281 60.15625 -22.40625 C 60.90625 -23.875 61.664062 -25.34375 62.4375 -26.8125 C 62.539062 -26.945312 62.632812 -27.09375 62.71875 -27.25 C 62.925781 -27.738281 63.179688 -28.179688 63.484375 -28.578125 C 64.941406 -30.285156 66.171875 -32.140625 67.171875 -34.140625 C 68.179688 -36.140625 69.097656 -38.191406 69.921875 -40.296875 C 70.316406 -41.179688 70.703125 -42.066406 71.078125 -42.953125 C 78.179688 -58.953125 85.1875 -75 92.09375 -91.09375 C 95.269531 -98.132812 97.710938 -105.390625 99.421875 -112.859375 C 100.109375 -115.554688 100.28125 -118.253906 99.9375 -120.953125 C 99.59375 -122.523438 98.566406 -123.34375 96.859375 -123.40625 C 95.148438 -123.476562 93.082031 -123.039062 90.65625 -122.09375 C 88.226562 -121.144531 85.707031 -119.992188 83.09375 -118.640625 C 80.476562 -117.296875 78.113281 -115.976562 76 -114.6875 C 73.894531 -113.394531 72.335938 -112.425781 71.328125 -111.78125 C 71.023438 -111.625 70.820312 -111.503906 70.71875 -111.421875 C 43.1875 -94.296875 18.535156 -73.722656 -3.234375 -49.703125 C -5.640625 -47.066406 -7.941406 -44.335938 -10.140625 -41.515625 C -12.347656 -38.703125 -14.367188 -35.738281 -16.203125 -32.625 C -17.597656 -30.269531 -18.707031 -27.8125 -19.53125 -25.25 C -20.539062 -21.300781 -20.253906 -18.285156 -18.671875 -16.203125 C -17.085938 -14.128906 -14.707031 -12.738281 -11.53125 -12.03125 C -8.351562 -11.320312 -4.898438 -11.070312 -1.171875 -11.28125 C 2.546875 -11.5 6.050781 -11.878906 9.34375 -12.421875 C 12.632812 -12.972656 15.191406 -13.515625 17.015625 -14.046875 C 19.171875 -14.578125 21.34375 -15.082031 23.53125 -15.5625 C 25.394531 -15.914062 25.914062 -15.796875 25.09375 -15.203125 C 24.269531 -14.617188 22.484375 -13.8125 19.734375 -12.78125 C 16.984375 -11.757812 13.679688 -10.757812 9.828125 -9.78125 C 5.972656 -8.8125 1.992188 -8.117188 -2.109375 -7.703125 C -6.222656 -7.285156 -10.082031 -7.367188 -13.6875 -7.953125 C -17.289062 -8.546875 -20.222656 -9.890625 -22.484375 -11.984375 C -24.753906 -14.078125 -25.914062 -17.179688 -25.96875 -21.296875 C -25.96875 -21.398438 -25.96875 -21.503906 -25.96875 -21.609375 C -25.84375 -24.203125 -25.234375 -26.671875 -24.140625 -29.015625 C -22.296875 -33.253906 -19.945312 -37.191406 -17.09375 -40.828125 C -14.070312 -44.742188 -10.921875 -48.53125 -7.640625 -52.1875 C 13.484375 -75.375 37.285156 -95.390625 63.765625 -112.234375 C 66.878906 -114.234375 70.503906 -116.421875 74.640625 -118.796875 C 78.773438 -121.171875 83.03125 -123.164062 87.40625 -124.78125 C 91.78125 -126.394531 95.878906 -127.117188 99.703125 -126.953125 C 103.910156 -126.710938 106.21875 -124.515625 106.625 -120.359375 C 106.8125 -118.804688 106.800781 -117.296875 106.59375 -115.828125 C 106.394531 -114.359375 106.113281 -112.890625 105.75 -111.421875 C 105.6875 -111.210938 105.628906 -110.988281 105.578125 -110.75 C 104.804688 -107.226562 103.804688 -103.789062 102.578125 -100.4375 C 101.347656 -97.09375 100.03125 -93.78125 98.625 -90.5 C 86.582031 -61.894531 73.988281 -33.566406 60.84375 -5.515625 C 60.4375 -4.691406 60.0625 -3.84375 59.71875 -2.96875 C 59.125 -1.601562 59.179688 -0.660156 59.890625 -0.140625 C 60.597656 0.378906 61.785156 0.640625 63.453125 0.640625 C 65.117188 0.640625 67.078125 0.5625 69.328125 0.40625 C 69.671875 0.40625 70.015625 0.363281 70.359375 0.28125 C 71.828125 0.226562 73.320312 0.148438 74.84375 0.046875 C 81.59375 -0.492188 88.289062 -0.859375 94.9375 -1.046875 C 96.113281 -1.046875 96.925781 -1.535156 97.375 -2.515625 C 97.90625 -3.585938 98.414062 -4.671875 98.90625 -5.765625 C 107.570312 -24.835938 116.585938 -43.738281 125.953125 -62.46875 C 135.316406 -81.207031 144.816406 -99.875 154.453125 -118.46875 C 154.554688 -118.707031 154.675781 -118.945312 154.8125 -119.1875 C 155.15625 -120.070312 155.675781 -120.804688 156.375 -121.390625 C 156.90625 -121.679688 157.523438 -121.828125 158.234375 -121.828125 C 158.941406 -121.828125 159.539062 -121.664062 160.03125 -121.34375 C 160.53125 -121.03125 160.628906 -120.457031 160.328125 -119.625 C 160.273438 -119.4375 160.195312 -119.238281 160.09375 -119.03125 C 159.320312 -117.03125 158.46875 -115.054688 157.53125 -113.109375 C 152.78125 -103.554688 147.992188 -94.015625 143.171875 -84.484375 C 141.484375 -81.097656 139.785156 -77.695312 138.078125 -74.28125 C 126.867188 -51.925781 115.890625 -29.445312 105.140625 -6.84375 C 104.953125 -6.414062 104.753906 -6.003906 104.546875 -5.609375 C 104.304688 -5.128906 104.09375 -4.660156 103.90625 -4.203125 C 103.257812 -2.785156 103.21875 -1.867188 103.78125 -1.453125 C 104.34375 -1.046875 105.238281 -0.910156 106.46875 -1.046875 C 119.320312 -1.734375 132.425781 -1.882812 145.78125 -1.5 C 159.132812 -1.113281 172.390625 -0.570312 185.546875 0.125 C 189.578125 0.3125 193.59375 0.507812 197.59375 0.71875 C 197.78125 0.71875 197.925781 0.71875 198.03125 0.71875 C 198.570312 0.71875 199.101562 0.765625 199.625 0.859375 C 200.144531 0.953125 200.617188 1.171875 201.046875 1.515625 Z M 201.046875 1.515625 "/></g></g></g></g></g></g></svg>